<?xml version="1.0" standalone="no"?>
<!DOCTYPE svg PUBLIC "-//W3C//DTD SVG 20010904//EN"
 "http://www.w3.org/TR/2001/REC-SVG-20010904/DTD/svg10.dtd">
<svg version="1.0" xmlns="http://www.w3.org/2000/svg"
 width="850.000000pt" height="850.000000pt" viewBox="0 0 850.000000 850.000000"
 preserveAspectRatio="xMidYMid meet">
<metadata>
Created by potrace 1.11, written by Peter Selinger 2001-2013
</metadata>
<g transform="translate(0.000000,850.000000) scale(0.100000,-0.100000)"
fill="#000000" stroke="none">
<path d="M2047 7964 c-1 -1 -38 -4 -82 -8 -229 -17 -486 -78 -662 -156 -155
-69 -398 -209 -453 -261 -9 -8 -36 -30 -60 -49 -95 -73 -214 -191 -315 -311
-186 -222 -348 -554 -419 -859 -42 -182 -51 -279 -50 -510 2 -268 40 -475 131
-720 48 -128 137 -305 213 -419 34 -52 67 -100 73 -107 7 -7 26 -30 42 -51 42
-53 116 -135 200 -223 40 -41 94 -98 121 -127 27 -28 117 -122 199 -208 83
-87 168 -176 190 -200 22 -23 114 -120 205 -215 91 -95 206 -216 255 -268 50
-52 117 -123 150 -157 33 -35 118 -124 188 -198 70 -74 154 -162 185 -194 65
-68 347 -364 406 -427 22 -22 113 -117 202 -211 89 -93 182 -190 205 -215 40
-42 307 -324 394 -415 194 -203 378 -396 415 -435 25 -26 115 -121 200 -210
85 -89 180 -190 212 -223 l56 -62 62 65 c34 36 124 130 199 208 155 164 192
202 415 436 88 94 177 186 196 206 97 102 260 273 390 409 80 84 165 174 190
200 25 26 126 133 225 237 99 103 217 227 262 274 45 47 105 110 133 140 52
56 303 320 395 416 28 28 120 125 205 215 85 89 199 209 253 265 54 56 98 106
98 111 -1 4 -431 8 -956 8 l-956 0 -127 -134 c-70 -74 -151 -159 -181 -190
-161 -169 -351 -369 -390 -410 -24 -25 -120 -126 -214 -224 -94 -98 -176 -186
-182 -194 -11 -15 -63 33 -268 252 -36 39 -96 102 -134 141 -69 72 -308 323
-428 449 -37 39 -133 140 -215 225 -81 85 -168 176 -192 203 -25 26 -117 123
-205 215 -88 92 -177 186 -199 208 -21 23 -107 113 -191 201 -246 257 -293
308 -293 313 0 3 1367 5 3038 5 l3037 0 67 133 c102 204 183 476 204 692 10
96 11 377 1 455 -19 162 -28 211 -63 340 -62 234 -157 437 -302 650 -41 61
-78 112 -81 115 -3 3 -30 33 -59 67 -160 189 -362 352 -592 478 -179 98 -434
190 -610 220 -19 3 -42 8 -50 10 -8 2 -40 6 -70 10 -30 3 -72 8 -93 11 -97 15
-371 6 -512 -16 -100 -16 -116 -20 -218 -46 -286 -72 -555 -208 -801 -404 -85
-68 -184 -165 -411 -405 -82 -87 -157 -165 -166 -174 -8 -9 -59 -62 -112 -117
l-96 -102 -75 77 c-41 42 -93 96 -116 121 -108 116 -354 372 -430 449 -351
353 -815 570 -1319 617 -63 6 -259 12 -264 8z"/>
</g>
</svg>
